<svg xmlns="http://www.w3.org/2000/svg" viewBox="0 0 24 24" role="img" aria-label="MongoDB">
  <path
    fill="#47A248"
    d="M17.193 9.787c-1.047-4.637-3.636-6.14-3.751-6.7-.161-.77-1.187-6.1-1.187-6.1l-.006.012c-.03.074-1.093 2.11-1.28 4.077-.238 2.444.31 3.838.58 4.744.058.19.12.386.181.59-1.08-.59-2.28-.93-3.51-.93-3.63 0-6.7 2.47-7.53 5.86-.15.61-.23 1.25-.23 1.91 0 3.31 1.7 6.19 4.27 7.81.22.13.45.25.68.36-.13-.41-.22-.84-.26-1.29-.07-.93.04-1.82.33-2.64.67-1.91 2.22-3.39 4.16-4.01.47-.15.96-.23 1.47-.23.19 0 .37.01.55.03 1.93.21 3.56 1.36 4.48 2.99.17.29.31.6.42.92.45 1.27.51 2.69.17 3.98-.08.26-.18.52-.3.76 2.5-1.5 4.21-4.17 4.45-7.26.04-.56.01-1.12-.09-1.67z"
  />
</svg>
